<?xml version="1.0" encoding="UTF-8" standalone="no"?>
<svg
   version="1.1"
   viewBox="0 0 2028.374 448.15039"
   id="svg1007"
   sodipodi:docname="logo_light.svg"
   inkscape:version="1.1.1 (3bf5ae0d25, 2021-09-20)"
   width="2028.374"
   height="448.15039"
   xmlns:inkscape="http://www.inkscape.org/namespaces/inkscape"
   xmlns:sodipodi="http://sodipodi.sourceforge.net/DTD/sodipodi-0.dtd"
   xmlns="http://www.w3.org/2000/svg"
   xmlns:svg="http://www.w3.org/2000/svg">
  <defs
     id="defs1011" />
  <sodipodi:namedview
     id="namedview1009"
     pagecolor="#505050"
     bordercolor="#eeeeee"
     borderopacity="1"
     inkscape:pageshadow="0"
     inkscape:pageopacity="0"
     inkscape:pagecheckerboard="0"
     showgrid="false"
     inkscape:zoom="0.25364128"
     inkscape:cx="960.01723"
     inkscape:cy="607.15669"
     inkscape:window-width="1912"
     inkscape:window-height="1003"
     inkscape:window-x="4"
     inkscape:window-y="36"
     inkscape:window-maximized="0"
     inkscape:current-layer="svg1007"
     fit-margin-top="0"
     fit-margin-left="0"
     fit-margin-right="0"
     fit-margin-bottom="0" />
  <path
     d="m 512,255.902 -0.004,112 c -0.896,44.2 -35.896,80.1 -79.996,80.1 -26.47,0 -48,-21.56 -48,-48.06 v -127.84 c 0,-26.5 21.5,-48.1 48,-48.1 10.83,0 20.91,2.723 30.3,6.678 C 449.7,127.1 362.1,48.13 256,48.13 149.9,48.13 62.29,127.1 49.7,230.7 c 9.39,-4 19.47,-6.7 30.3,-6.7 26.5,0 48,21.6 48,48.1 V 400 c 0,26.4 -21.5,48 -48,48 C 35.89,448 0.9,412.12 0.9,367.94 L 0,256 C 0,114.8 114.8,0 256,0 c 140.9,0 256.5,114.56 256,255.36 0,0.2 0,0 -0.002,0.54451 z"
     fill="currentColor"
     id="path1003"
     style="fill:#84cc16;fill-opacity:1" />
  <path
     d="m 364,315.002 v -138.86 c 0,-12.782 -10.366,-23.143 -23.143,-23.143 h -146.57 c -25.563,0 -46.286,20.723 -46.286,46.286 v 154.29 c 0,25.563 20.723,46.286 46.286,46.286 h 154.29 c 8.5195,0 15.429,-6.9091 15.429,-14.995 0,-5.6507 -3.1855,-10.376 -7.7143,-13.066 v -39.227 c 4.725,-4.6479 7.7143,-10.723 7.7143,-17.569 z M 216.99,214.712 h 92.572 c 4.6768,0 8.1482,3.4714 8.1482,7.7143 0,4.2429 -3.4714,7.7143 -7.7143,7.7143 h -93.006 c -3.8089,0 -7.2804,-3.4714 -7.2804,-7.7143 0,-4.2429 3.4714,-7.7143 7.2804,-7.7143 z m 0,30.857 h 92.572 c 4.6768,0 8.1482,3.4714 8.1482,7.7143 0,4.2429 -3.4714,7.7143 -7.7143,7.7143 h -93.006 c -3.8089,0 -7.2804,-3.4714 -7.2804,-7.7143 0,-4.2429 3.4714,-7.7143 7.2804,-7.7143 z m 116.15,123.43 H 194.28 c -8.5195,0 -15.429,-6.9091 -15.429,-15.429 0,-8.5195 6.9091,-15.429 15.429,-15.429 h 138.86 z"
     fill="currentColor"
     id="path1005"
     style="fill:#84cc16;fill-opacity:1" />
  <g
     fill="currentColor"
     id="g106"
     transform="translate(492.35099,-31.85962)"
     style="fill:#18181b;fill-opacity:1">
    <path
       d="M 283.08,388.31 H 159.7 l -24,91.692 H 40.008 l 140,-448 h 82.769 l 140.92,448 H 307.082 Z M 179.39,312.925 h 83.692 l -41.846,-159.69 z"
       id="path94"
       style="fill:#18181b;fill-opacity:1" />
    <g
       id="g104"
       style="fill:#18181b;fill-opacity:1">
      <path
         d="M 533.4,146.87 596.32,387.8 659.011,146.87 H 746.87 V 480 h -67.496 v -90.147 l 6.1776,-138.88 -66.581,229.03 h -45.76 l -66.581,-229.03 6.1775,138.88 V 480 h -67.267 V 146.87 Z"
         id="path96"
         style="fill:#18181b;fill-opacity:1" />
      <path
         d="M 800.87,480 V 146.87 h 102.96 q 52.166,0 79.165,23.338 27.227,23.109 27.227,67.953 0,25.397 -11.211,43.701 -11.211,18.304 -30.659,26.77 22.422,6.4064 34.549,25.854 12.126,19.219 12.126,47.59 0,48.506 -26.77,73.216 -26.541,24.71 -77.105,24.71 z m 67.267,-144.83 v 89.003 h 43.014 q 18.075,0 27.456,-11.211 9.3809,-11.211 9.3809,-31.803 0,-44.845 -32.49,-45.989 z m 0,-48.963 h 35.006 q 39.582,0 39.582,-40.955 0,-22.651 -9.152,-32.49 -9.152,-9.839 -29.744,-9.8384 h -35.693 z"
         id="path98"
         style="fill:#18181b;fill-opacity:1" />
      <path
         d="m 1164.7,358.28 h -33.405 V 480 h -67.267 V 146.87 h 107.31 q 50.565,0 78.02,26.312 27.685,26.083 27.685,74.36 0,66.352 -48.277,92.893 l 58.344,136.36 v 3.2032 h -72.301 z m -33.405,-56.056 h 38.21 q 20.134,0 30.202,-13.27 10.067,-13.499 10.067,-35.922 0,-50.107 -39.125,-50.107 h -39.354 z"
         id="path100"
         style="fill:#18181b;fill-opacity:1" />
      <path
         d="m 1412.7,296.5 50.107,-149.63 h 73.216 l -89.232,212.33 v 120.81 h -68.182 V 359.2 l -89.461,-212.33 h 73.216 z"
         id="path102"
         style="fill:#18181b;fill-opacity:1" />
    </g>
  </g>
</svg>
