<svg version="1.1" viewBox="0 0 1536 512" xmlns="http://www.w3.org/2000/svg">
  <g fill="currentColor">
    <path d="m283.08 388.31h-123.38l-24 91.692h-95.692l140-448h82.769l140.92 448h-96.615zm-103.69-75.385h83.692l-41.846-159.69z" />
    <g>
      <path d="m533.4 146.87 62.92 240.93 62.691-240.93h87.859v333.13h-67.496v-90.147l6.1776-138.88-66.581 229.03h-45.76l-66.581-229.03 6.1775 138.88v90.147h-67.267v-333.13z" />
      <path d="m800.87 480v-333.13h102.96q52.166 0 79.165 23.338 27.227 23.109 27.227 67.953 0 25.397-11.211 43.701-11.211 18.304-30.659 26.77 22.422 6.4064 34.549 25.854 12.126 19.219 12.126 47.59 0 48.506-26.77 73.216-26.541 24.71-77.105 24.71zm67.267-144.83v89.003h43.014q18.075 0 27.456-11.211 9.3809-11.211 9.3809-31.803 0-44.845-32.49-45.989zm0-48.963h35.006q39.582 0 39.582-40.955 0-22.651-9.152-32.49t-29.744-9.8384h-35.693z" />
      <path d="m1164.7 358.28h-33.405v121.72h-67.267v-333.13h107.31q50.565 0 78.02 26.312 27.685 26.083 27.685 74.36 0 66.352-48.277 92.893l58.344 136.36v3.2032h-72.301zm-33.405-56.056h38.21q20.134 0 30.202-13.27 10.067-13.499 10.067-35.922 0-50.107-39.125-50.107h-39.354z" />
      <path d="m1412.7 296.5 50.107-149.63h73.216l-89.232 212.33v120.81h-68.182v-120.81l-89.461-212.33h73.216z" />
    </g>
  </g>
</svg>