<?xml version="1.0" encoding="UTF-8" standalone="no"?>
<!-- Created with Inkscape (http://www.inkscape.org/) -->

<svg
   width="313.58728mm"
   height="78.354225mm"
   viewBox="0 0 313.58728 78.354225"
   version="1.1"
   id="svg5"
   inkscape:version="1.1 (c4e8f9ed74, 2021-05-24)"
   sodipodi:docname="logo.svg"
   inkscape:export-filename="/home/chris/src/ambry/logo.png"
   inkscape:export-xdpi="491.51999"
   inkscape:export-ydpi="491.51999"
   xmlns:inkscape="http://www.inkscape.org/namespaces/inkscape"
   xmlns:sodipodi="http://sodipodi.sourceforge.net/DTD/sodipodi-0.dtd"
   xmlns="http://www.w3.org/2000/svg"
   xmlns:svg="http://www.w3.org/2000/svg">
  <sodipodi:namedview
     id="namedview7"
     pagecolor="#ffffff"
     bordercolor="#666666"
     borderopacity="1.0"
     inkscape:pageshadow="2"
     inkscape:pageopacity="0.0"
     inkscape:pagecheckerboard="0"
     inkscape:document-units="mm"
     showgrid="false"
     showborder="true"
     fit-margin-top="0"
     fit-margin-left="0"
     fit-margin-right="0"
     fit-margin-bottom="0"
     inkscape:zoom="0.45795779"
     inkscape:cx="99.354136"
     inkscape:cy="106.99676"
     inkscape:window-width="3420"
     inkscape:window-height="1393"
     inkscape:window-x="10"
     inkscape:window-y="37"
     inkscape:window-maximized="1"
     inkscape:current-layer="layer1" />
  <defs
     id="defs2" />
  <g
     inkscape:label="Layer 1"
     inkscape:groupmode="layer"
     id="layer1"
     transform="translate(-17.293409,-59.26989)">
    <path
       style="fill:#3f3f46;fill-opacity:1;stroke-width:0.200829"
       d="m 301.17127,137.51107 c -1.2523,-0.26341 -2.41827,-0.99153 -3.14577,-1.96443 -0.71705,-0.95892 -1.49607,-2.88548 -1.53944,-3.80713 l -0.0286,-0.6081 3.38263,0.0717 c 5.00199,0.10594 6.7241,-0.39585 8.85411,-2.58 1.05982,-1.08677 2.9851,-4.40928 2.9851,-5.15147 0,-0.48584 -9.63322,-22.71837 -10.55436,-24.358409 -1.13193,-2.015356 -2.25155,-3.247638 -3.57312,-3.932659 -1.24062,-0.643056 -1.61518,-1.295272 -1.23373,-2.148154 l 0.23031,-0.514938 h 6.92873 c 5.12371,0 6.99091,0.06337 7.1675,0.243251 0.53059,0.540515 0.2692,1.360792 -0.75614,2.372831 -0.70377,0.694654 -1.00301,1.152494 -1.0227,1.564672 -0.0576,1.20789 0.0763,2.239387 0.43118,3.319066 0.415,1.26277 5.91042,14.00028 6.14786,14.24969 0.1809,0.19004 5.41755,-11.81773 6.12593,-14.04697 0.51639,-1.625042 0.62623,-3.3501 0.25797,-4.051091 -0.28157,-0.535953 -1.35377,-1.217287 -1.9172,-1.218297 -0.23282,-4.19e-4 -0.53277,-0.135165 -0.66658,-0.29933 -0.28421,-0.348889 -0.32594,-1.684696 -0.0611,-1.954552 0.1044,-0.106266 2.64156,-0.162599 5.93952,-0.131742 l 5.75732,0.0539 v 0.993684 c 0,0.983458 -0.0108,0.999228 -0.98781,1.536155 -1.35264,0.742857 -2.66186,2.15237 -3.67547,3.957016 -0.46782,0.832969 -3.96766,8.632287 -7.77739,17.331807 -3.80976,8.69951 -7.15487,16.21372 -7.4336,16.69822 -0.68064,1.18315 -2.47393,2.82048 -3.7549,3.42838 -1.80673,0.85737 -4.50704,1.27796 -6.08029,0.94704 z m -60.60002,-12.79193 c -1.40596,-0.18394 -4.14465,-0.82889 -5.20026,-1.22464 -0.32832,-0.12304 -1.55679,-0.68005 -2.72994,-1.23767 l -2.13301,-1.01387 0.14323,-1.23807 c 0.0788,-0.68092 0.14324,-9.44731 0.14324,-19.48088 0,-17.132354 -0.0224,-18.316303 -0.36565,-19.44993 -0.4765,-1.573151 -1.45052,-2.586983 -2.90934,-3.028292 -0.5914,-0.178925 -1.31669,-0.325287 -1.61174,-0.325287 -0.72462,0 -1.05011,-0.444121 -0.8854,-1.208075 0.0867,-0.402299 0.28303,-0.652704 0.56479,-0.720502 3.14848,-0.757508 12.92183,-2.699725 13.14539,-2.612337 0.3889,0.152095 0.47506,0.620234 0.28245,1.534715 -0.74289,3.527082 -1.23677,10.199951 -1.12449,15.192836 0.0817,3.633841 0.19172,4.029184 1.1212,4.029184 0.27929,0 1.54427,-0.450757 2.81106,-1.001669 2.96302,-1.288588 5.05221,-1.723771 7.56883,-1.576678 3.58022,0.209266 6.6412,1.60413 8.85278,4.034168 2.26172,2.485133 3.40029,5.501677 3.62451,9.602817 0.34291,6.27248 -2.21778,12.55642 -6.57336,16.13093 -3.69856,3.0353 -9.03478,4.33755 -14.72427,3.59325 z m 8.46929,-4.24293 c 2.15057,-0.73802 3.32526,-1.7936 4.38349,-3.93906 1.93649,-3.92591 1.67309,-11.2264 -0.5686,-15.76103 -0.94783,-1.917325 -2.57328,-3.630538 -4.2342,-4.462798 -1.21976,-0.611197 -1.44248,-0.654072 -3.3977,-0.654072 -1.9628,0 -2.17544,0.04152 -3.43357,0.668194 -1.58903,0.791669 -3.18116,2.354284 -3.63662,3.56923 -0.28003,0.746946 -0.3137,1.832556 -0.25877,8.344186 l 0.0631,7.48551 0.56072,1.16324 c 0.64303,1.33395 1.72744,2.33066 3.36833,3.09592 2.14142,0.9987 5.08504,1.20061 7.15378,0.49068 z m -136.42805,3.00892 c -0.32999,-0.47994 -0.39734,-1.1235 -0.15747,-1.50482 0.0803,-0.12786 0.54861,-0.34257 1.04046,-0.47724 2.18778,-0.59893 3.57593,-1.92558 5.03483,-4.81177 0.72416,-1.43266 9.41179,-21.59805 13.07799,-30.356147 1.31543,-3.142417 2.18837,-5.917646 2.45468,-7.803872 l 0.24326,-1.72293 1.06732,-0.363304 c 0.58703,-0.199821 1.64582,-0.382257 2.35287,-0.405406 l 1.28554,-0.0421 8.58277,20.380766 c 4.72052,11.209443 8.89616,20.911753 9.27919,21.560723 1.2721,2.15525 2.61679,3.2167 4.63304,3.65709 0.75717,0.16541 1.06832,0.89323 0.70867,1.65776 l -0.27302,0.58039 -8.88541,0.0528 c -9.95688,0.059 -9.59499,0.11046 -9.47563,-1.34482 0.0576,-0.70353 0.11124,-0.75221 1.25416,-1.14032 1.73706,-0.58982 2.08216,-0.84422 2.52323,-1.85996 0.35488,-0.8173 0.37289,-1.05145 0.17143,-2.22998 -0.26197,-1.53241 -1.57465,-4.76175 -2.22006,-5.46162 -0.24478,-0.26543 -0.76509,-0.57316 -1.15626,-0.68385 -0.77931,-0.22053 -16.128,-0.28346 -17.38846,-0.0713 -1.12155,0.1888 -1.76039,0.98257 -2.60948,3.24237 -0.95296,2.53626 -1.14393,4.50111 -0.53308,5.48528 0.4847,0.78095 1.67616,1.4387 2.92088,1.61251 1.08004,0.15084 1.4781,0.49662 1.4781,1.28411 0,1.22932 0.0849,1.21618 -7.86258,1.21618 h -7.23722 z m 30.45001,-16.60825 c 0.30704,-0.31299 0.0581,-1.00045 -3.61529,-9.982134 -2.16979,-5.305258 -4.00802,-9.577874 -4.08499,-9.49468 -0.0769,0.08312 -1.89973,4.422337 -4.05058,9.642519 -4.08939,9.925085 -4.08599,9.913705 -3.02642,10.135455 0.23828,0.0499 3.58646,0.0781 7.44038,0.0627 6.23784,-0.0247 7.04335,-0.0648 7.3369,-0.36401 z m 23.47612,16.74022 c -0.17198,-0.17517 -0.31269,-0.61985 -0.31269,-0.98815 0,-0.59369 0.0733,-0.68434 0.64669,-0.79953 1.19148,-0.23933 2.66702,-1.11516 3.19972,-1.89923 0.88726,-1.30598 0.95277,-2.17724 0.88906,-11.82351 -0.055,-8.320123 -0.0876,-9.05941 -0.43222,-9.765664 -0.50464,-1.034538 -1.25377,-1.530538 -2.90942,-1.926354 -1.34983,-0.322711 -1.39374,-0.352676 -1.39078,-0.949715 0.002,-0.339073 0.0757,-0.733014 0.16437,-0.875445 0.19766,-0.317285 10.63232,-3.338212 11.22608,-3.250046 0.35745,0.05313 0.45923,0.273181 0.63848,1.380681 0.11729,0.724647 0.28387,1.431538 0.37019,1.57091 0.28631,0.462156 1.07278,0.264684 3.41959,-0.858628 3.44046,-1.64681 4.7593,-2.013622 7.25975,-2.019199 1.51368,-0.0031 2.37772,0.09694 3.13626,0.364158 1.28385,0.452277 2.85035,1.624648 3.64899,2.730952 l 0.59772,0.827935 1.79914,-0.918931 c 4.95358,-2.530084 10.02907,-3.635316 13.05347,-2.842465 2.99717,0.785708 4.61904,2.288057 5.88744,5.453622 0.41016,1.023666 0.42975,1.435626 0.52769,11.096709 0.0982,9.68814 0.11621,10.06559 0.52453,10.96486 0.65245,1.437 1.83194,2.36428 3.45725,2.71797 0.38303,0.0833 0.75389,0.24353 0.82415,0.35593 0.17256,0.2762 -0.15849,1.39939 -0.47229,1.60229 -0.13874,0.0898 -3.49506,0.16457 -7.45834,0.16628 -6.92235,0.003 -7.21408,-0.0125 -7.41195,-0.38897 -0.11326,-0.21564 -0.20598,-0.66996 -0.20598,-1.00963 0,-0.50725 0.0977,-0.64064 0.54718,-0.74675 1.05162,-0.24828 2.13798,-1.04549 2.63861,-1.93631 l 0.49532,-0.88133 0.0622,-8.10792 c 0.0645,-8.4195 -0.0286,-9.79213 -0.76295,-11.258603 -0.49423,-0.986882 -1.79196,-2.144047 -2.71745,-2.423082 -2.68335,-0.809023 -7.50185,-0.139826 -8.9462,1.242362 l -0.46961,0.449436 v 9.658087 c 0,10.88016 0.009,10.96711 1.3944,12.24131 0.68799,0.63317 1.81533,1.13331 2.56147,1.13639 0.20408,8.1e-4 0.24493,0.18826 0.15885,0.72865 -0.21638,1.35835 0.12118,1.29977 -7.47199,1.29636 -3.78957,-0.002 -7.00883,-0.0797 -7.15394,-0.17349 -0.1451,-0.0937 -0.311,-0.52876 -0.36868,-0.9668 l -0.10487,-0.79642 1.09869,-0.35279 c 1.28773,-0.41352 2.19853,-1.34143 2.52354,-2.57092 0.14323,-0.54192 0.19602,-3.71712 0.15759,-9.47879 l -0.0578,-8.66393 -0.59693,-1.207369 c -0.71956,-1.455394 -1.66226,-2.260902 -3.10315,-2.651547 -2.81481,-0.76317 -7.9198,0.177039 -8.85488,1.630812 -0.2553,0.396927 -0.28887,1.841904 -0.2384,10.263774 l 0.0587,9.80177 0.56287,0.97552 c 0.62307,1.0798 1.38624,1.65232 2.69047,2.01833 0.86183,0.24185 0.86515,0.24638 0.76126,1.03545 -0.0575,0.43589 -0.22307,0.8692 -0.36816,0.96291 -0.1451,0.0937 -3.54803,0.17178 -7.56206,0.17349 -6.37215,0.003 -7.33792,-0.0373 -7.61093,-0.31543 z m 100.88783,0.006 c -0.1751,-0.17838 -0.31837,-0.61982 -0.31837,-0.98096 0,-0.61762 0.0587,-0.672 0.98797,-0.9146 1.45241,-0.3792 2.45401,-1.21122 3.11911,-2.59103 l 0.56892,-1.18028 v -9.42562 c 0,-8.805892 -0.0246,-9.475717 -0.37275,-10.189592 -0.5029,-1.030914 -1.24776,-1.526476 -2.90715,-1.934102 -1.3415,-0.329531 -1.39323,-0.364877 -1.39166,-0.950352 8.6e-4,-0.334439 0.0753,-0.726559 0.16558,-0.871357 0.20547,-0.329977 10.49498,-3.311569 11.17173,-3.23723 0.47322,0.05205 0.5072,0.144483 0.69884,1.901423 0.20206,1.852329 0.47755,2.51121 1.05002,2.51121 0.16898,0 1.25488,-0.627441 2.41312,-1.394335 3.45478,-2.287452 5.50095,-3.202816 6.66297,-2.980748 0.7654,0.146191 2.19071,1.327065 2.61807,2.16893 0.27262,0.537054 0.26284,0.750222 -0.1075,2.338422 -0.46414,1.990791 -0.97928,3.285507 -1.47221,3.700079 -0.29817,0.250773 -0.52381,0.189732 -1.87289,-0.506743 l -1.53386,-0.791879 h -2.48725 c -2.02415,0 -2.62564,0.07002 -3.2307,0.376514 -1.04804,0.530763 -1.91452,1.50041 -2.15554,2.41221 -0.13081,0.49478 -0.18396,3.75132 -0.14573,8.92733 0.059,8.00195 0.0682,8.16368 0.50749,9.00109 0.73054,1.39249 2.27071,2.07094 6.16866,2.71736 1.29217,0.21429 1.4426,0.28663 1.4426,0.69382 0,0.25002 -0.17112,0.66992 -0.38026,0.93311 l -0.38026,0.47852 -9.25029,0.0564 c -8.26172,0.0505 -9.28434,0.0218 -9.56867,-0.26786 z"
       id="path7231" />
    <rect
       style="fill:none;stroke:#84cc16;stroke-width:2.065;stroke-linejoin:miter;stroke-miterlimit:10;stroke-dasharray:none;stroke-opacity:1;paint-order:normal"
       id="rect10820"
       width="46.616226"
       height="4.7057009"
       x="35.869198"
       y="115.75484"
       rx="0.16124791" />
    <rect
       style="fill:none;stroke:#84cc16;stroke-width:1.86051;stroke-linejoin:miter;stroke-miterlimit:10;stroke-dasharray:none;stroke-opacity:1;paint-order:normal"
       id="rect11261"
       width="4.8102717"
       height="5.8543611"
       x="41.418663"
       y="120.38043"
       rx="0.16124792" />
    <rect
       style="fill:none;stroke:#84cc16;stroke-width:1.86051;stroke-linejoin:miter;stroke-miterlimit:10;stroke-dasharray:none;stroke-opacity:1;paint-order:normal"
       id="rect11261-3"
       width="4.8102717"
       height="5.8543611"
       x="72.167793"
       y="120.38043"
       rx="0.16124792" />
    <rect
       style="fill:none;stroke:#84cc16;stroke-width:1.812;stroke-linejoin:miter;stroke-miterlimit:10;stroke-dasharray:none;stroke-opacity:1;paint-order:normal"
       id="rect11387"
       width="11.119295"
       height="34.200287"
       x="38.695122"
       y="81.54705"
       rx="0.16124792" />
    <rect
       style="fill:none;stroke:#84cc16;stroke-width:1.812;stroke-linejoin:miter;stroke-miterlimit:10;stroke-dasharray:none;stroke-opacity:1;paint-order:normal"
       id="rect11389"
       width="9.3781958"
       height="37.253391"
       x="49.940826"
       y="78.578339"
       rx="0.16124792" />
    <rect
       style="fill:none;stroke:#84cc16;stroke-width:1.812;stroke-linejoin:miter;stroke-miterlimit:10;stroke-dasharray:none;stroke-opacity:1;paint-order:normal"
       id="rect11391"
       width="9.2249651"
       height="5.6539917"
       x="49.916138"
       y="106.2273"
       rx="0.16124792" />
    <rect
       style="fill:none;stroke:#84cc16;stroke-width:1.812;stroke-linejoin:miter;stroke-miterlimit:10;stroke-dasharray:none;stroke-opacity:1;paint-order:normal"
       id="rect11393"
       width="7.409987"
       height="28.649157"
       x="59.319023"
       y="87.208908"
       rx="0.16124792" />
    <rect
       style="fill:none;stroke:#84cc16;stroke-width:1.812;stroke-linejoin:miter;stroke-miterlimit:10;stroke-dasharray:none;stroke-opacity:1;paint-order:normal"
       id="rect11395"
       width="8.3702116"
       height="33.529774"
       x="51.968037"
       y="91.834732"
       rx="0.16124792"
       transform="rotate(-9.3410028)" />
    <rect
       style="fill:none;stroke:#84cc16;stroke-width:1.812;stroke-linejoin:miter;stroke-miterlimit:10;stroke-dasharray:none;stroke-opacity:1;paint-order:normal"
       id="rect11395-6"
       width="8.3669767"
       height="22.043972"
       x="51.983757"
       y="97.654839"
       rx="0.16124792"
       transform="rotate(-9.3410028)" />
    <rect
       style="fill:none;stroke:#84cc16;stroke-width:1.812;stroke-linejoin:miter;stroke-miterlimit:10;stroke-dasharray:none;stroke-opacity:1;paint-order:normal"
       id="rect11898"
       width="0.044171613"
       height="18.195898"
       x="62.953041"
       y="91.835922"
       rx="0.16124792" />
    <rect
       style="fill:none;stroke:#84cc16;stroke-width:1.812;stroke-linejoin:miter;stroke-miterlimit:10;stroke-dasharray:none;stroke-opacity:1;paint-order:normal"
       id="rect11900"
       width="3.6760933"
       height="23.488777"
       x="42.41655"
       y="86.37915"
       rx="1.824476" />
    <path
       style="fill:#84cc16;fill-opacity:1;stroke-width:0.260517"
       d="m 24.151766,132.76536 c -3.8311,-1.66896 -5.020875,-2.55787 -6.226025,-4.65161 l -0.632332,-1.09858 v -9.95919 -9.95918 l 0.732587,-1.16901 c 0.402924,-0.64295 1.111341,-1.54306 1.574245,-2.00023 l 0.841659,-0.83123 0.07842,-4.953578 c 0.111852,-7.062168 1.16811,-11.63877 3.999687,-17.330025 5.397492,-10.848573 14.788766,-18.23379 26.61743,-20.931717 2.327645,-0.530903 3.373978,-0.61112 7.970762,-0.61112 5.886592,0 7.642007,0.262705 12.297762,1.840384 9.60337,3.254273 17.805534,10.513382 22.281095,19.7193 2.944476,6.056564 3.945376,10.394143 4.024336,17.440083 l 0.0539,4.817543 0.84623,0.83579 c 0.46543,0.45969 1.17591,1.36185 1.578848,2.0048 l 0.73257,1.16901 v 9.95918 9.95919 l -0.63232,1.09858 c -1.190268,2.06789 -2.374378,2.95554 -6.190545,4.64069 -1.974467,0.87188 -3.686251,1.58525 -3.803974,1.58525 -0.117722,0 -0.214045,-7.75018 -0.214045,-17.22263 0,-9.47245 0.06037,-17.222816 0.134194,-17.222816 0.07377,0 0.823238,0.285226 1.665406,0.633836 l 1.531213,0.63383 0.17151,-1.165058 C 93.980688,97.304926 93.019756,90.930286 91.599476,86.829137 89.323836,80.258119 85.048784,74.378805 79.509766,70.202634 76.840052,68.189787 71.91324,65.701287 68.787512,64.786888 60.305109,62.305454 51.957698,63.054512 43.997927,67.011399 c -9.287918,4.61712 -15.764618,12.782853 -18.348378,23.133376 -0.73746,2.95425 -1.275785,8.09853 -1.025442,9.799137 l 0.179287,1.217998 1.531223,-0.63383 c 0.842168,-0.34861 1.591603,-0.633836 1.665407,-0.633836 0.07377,0 0.134182,7.750366 0.134182,17.222816 0,9.47245 -0.08717,17.22081 -0.193587,17.2186 -0.106446,-0.002 -1.811495,-0.70885 -3.788931,-1.5703 z m 5.024065,1.06573 c -0.369018,-0.7024 -0.369018,-32.72582 0,-33.42824 0.391781,-0.745733 3.203686,-0.745733 3.595467,0 0.369018,0.70242 0.369018,32.72584 0,33.42824 -0.218055,0.41504 -0.548704,0.5086 -1.797728,0.5086 -1.249024,0 -1.579684,-0.0936 -1.797739,-0.5086 z m 56.269342,0 c -0.175897,-0.33481 -0.267202,-6.04605 -0.267202,-16.71403 0,-10.66799 0.09127,-16.3794 0.267202,-16.71421 0.391781,-0.745733 3.203686,-0.745733 3.595466,0 0.369008,0.70242 0.369008,32.72584 0,33.42824 -0.218054,0.41504 -0.548714,0.5086 -1.797738,0.5086 -1.249025,0 -1.579673,-0.0936 -1.797728,-0.5086 z"
       id="path14523" />
  </g>
</svg>
