<svg width="72" height="76" version="1.1" viewBox="0 0 19.05 20.108"
  xmlns="http://www.w3.org/2000/svg">
  <g transform="translate(-7.4083 -10.583)" fill="none" stroke="#84cc16" stroke-dashoffset="2" stroke-linecap="square">
    <rect x="7.8052" y="26.591" width="18.256" height="1.8521" rx=".26458" stroke-width=".79375" style="paint-order:normal"/>
    <g stroke-width=".52917">
      <rect x="9.7896" y="28.31" width="1.5875" height="2.1167" rx=".26458" style="paint-order:normal"/>
      <rect x="22.49" y="28.31" width="1.5875" height="2.1167" rx=".26458" style="paint-order:normal"/>
      <rect x="8.9958" y="13.229" width="4.2333" height="13.229" rx=".26458" style="paint-order:normal"/>
      <rect x="13.229" y="10.848" width="3.7042" height="15.61" rx=".26458" style="paint-order:normal"/>
      <rect x="16.933" y="15.346" width="2.9104" height="11.113" rx=".26458" style="paint-order:normal"/>
      <rect x="13.229" y="22.225" width="3.7042" height="2.1167" rx="0" style="paint-order:normal"/>
      <rect x="10.319" y="15.346" width="1.5875" height="8.9958" rx=".79375" style="paint-order:normal"/>
      <rect x="18.256" y="17.463" width=".26458" height="6.8792" rx=".13229" style="paint-order:normal"/>
    </g>
    <g transform="rotate(-7.7978 23.696 26.934)" stroke-width=".52917">
      <rect x="21.696" y="12.965" width="3.175" height="13.494" rx=".26458" style="paint-order:normal"/>
      <rect x="21.696" y="15.081" width="3.175" height="9.2604" rx="0" style="paint-order:normal"/>
    </g>
    <ellipse cx="15.081" cy="14.42" rx=".79375" ry="1.7198" stroke-width=".52917" style="paint-order:normal"/>
  </g>
</svg>
