<svg width="196" height="48" version="1.1" viewBox="0 0 51.858 12.7" xmlns="http://www.w3.org/2000/svg"><path d="m46.686 12.68c-0.21804-0.04587-0.42106-0.17264-0.54773-0.34203-0.12484-0.16696-0.26048-0.5024-0.26802-0.66287l-0.0049-0.10588 0.58896 0.01249c0.87091 0.01845 1.1707-0.06892 1.5416-0.44921 0.18453-0.18922 0.51975-0.76771 0.51975-0.89694 0-0.0846-1.6773-3.9556-1.8376-4.2411-0.19711-0.3509-0.39205-0.56546-0.62216-0.68473-0.216-0.11196-0.28122-0.22552-0.2148-0.37402l0.04014-0.089653h1.2064c0.89211 0 1.2172 0.011037 1.248 0.042352 0.09241 0.094111 0.04686 0.23693-0.13166 0.41314-0.12254 0.12095-0.17463 0.20066-0.17806 0.27243-0.01007 0.21031 0.01331 0.38991 0.07505 0.57789 0.07229 0.21986 1.0291 2.4376 1.0704 2.4811 0.03147 0.03309 0.94326-2.0576 1.0666-2.4458 0.08995-0.28294 0.10902-0.5833 0.04487-0.70535-0.04902-0.093313-0.23572-0.21194-0.33381-0.21212-0.04053-7.2e-5 -0.0927-0.023534-0.11607-0.052115-0.0495-0.060745-0.0567-0.29333-0.01064-0.34031 0.01816-0.018504 0.45993-0.028307 1.0341-0.02294l1.0024 0.00938v0.17301c0 0.17123-0.0019 0.17398-0.17199 0.26746-0.23552 0.12934-0.46347 0.37475-0.63996 0.68897-0.08147 0.14503-0.69082 1.503-1.3541 3.0177-0.66333 1.5147-1.2458 2.823-1.2943 2.9074-0.11851 0.206-0.43074 0.49108-0.65378 0.59692-0.31458 0.14928-0.78473 0.22251-1.0587 0.16489zm-10.551-2.2272c-0.2448-0.03202-0.72164-0.14432-0.90543-0.21322-0.05717-0.02142-0.27106-0.1184-0.47532-0.21549l-0.37138-0.17653 0.02493-0.21556c0.0137-0.11856 0.02494-1.6449 0.02494-3.3919 0-2.983-0.0038-3.1891-0.06366-3.3865-0.08297-0.27391-0.25256-0.45043-0.50655-0.52726-0.10297-0.031154-0.22925-0.056637-0.28062-0.056637-0.12617 0-0.18284-0.077328-0.15416-0.21034 0.01506-0.070045 0.04927-0.11364 0.09833-0.12545 0.54819-0.13189 2.2499-0.47006 2.2888-0.45484 0.06771 0.026482 0.08272 0.10799 0.04917 0.26721-0.12935 0.61411-0.21534 1.7759-0.19579 2.6453 0.01422 0.6327 0.03338 0.70153 0.19522 0.70153 0.04863 0 0.26888-0.07848 0.48944-0.1744 0.5159-0.22436 0.87966-0.30013 1.3178-0.27452 0.62336 0.036433 1.1563 0.2793 1.5414 0.7024 0.3938 0.43269 0.59203 0.95791 0.63108 1.672 0.05966 1.0921-0.38615 2.1862-1.1445 2.8086-0.64396 0.52848-1.5731 0.75522-2.5637 0.62562zm1.4746-0.73874c0.37444-0.1285 0.57897-0.31229 0.76322-0.68584 0.33716-0.68355 0.2913-1.9547-0.099003-2.7442-0.16503-0.33383-0.44804-0.63212-0.73722-0.77703-0.21238-0.10642-0.25116-0.11388-0.59159-0.11388-0.34174 0-0.37877 0.0072-0.59783 0.11634-0.27667 0.13784-0.55388 0.40991-0.63318 0.62145-0.04876 0.13005-0.05462 0.31907-0.04506 1.4528l0.01097 1.3033 0.09764 0.20254c0.11196 0.23226 0.30077 0.4058 0.58647 0.53904 0.37284 0.17389 0.88536 0.20904 1.2456 0.085432zm-23.754 0.52389c-0.05745-0.08356-0.06918-0.19562-0.02742-0.262 0.01399-0.022261 0.09551-0.059651 0.18116-0.083095 0.38092-0.10428 0.62262-0.33527 0.87663-0.83779 0.12608-0.24944 1.6387-3.7605 2.277-5.2854 0.22903-0.54714 0.38102-1.0303 0.42739-1.3588l0.04235-0.29998 0.18583-0.063256c0.10221-0.034792 0.28656-0.066556 0.40968-0.070587l0.22383-0.00733 1.4944 3.5486c0.8219 1.9517 1.5489 3.641 1.6156 3.754 0.22149 0.37526 0.45561 0.56007 0.80667 0.63675 0.13183 0.028799 0.18601 0.15552 0.12339 0.28863l-0.04754 0.10105-1.5471 0.0092c-1.7336 0.01027-1.6706 0.01922-1.6498-0.23415 0.01007-0.12249 0.01937-0.13096 0.21837-0.19854 0.30244-0.1027 0.36253-0.14699 0.43932-0.32384 0.06179-0.1423 0.06492-0.18307 0.02985-0.38827-0.04562-0.26681-0.27417-0.82908-0.38654-0.95094-0.04262-0.046217-0.13321-0.099794-0.20132-0.11907-0.13569-0.038396-2.8081-0.049354-3.0276-0.012407-0.19528 0.032873-0.30651 0.17108-0.45434 0.56454-0.16592 0.44159-0.19917 0.7837-0.09283 0.95506 0.0844 0.13597 0.29184 0.2505 0.50856 0.28076 0.18805 0.026266 0.25736 0.086466 0.25736 0.22357 0 0.21404 0.01478 0.21175-1.369 0.21175h-1.2601zm5.3018-2.8917c0.05345-0.054493 0.01014-0.17419-0.62947-1.738-0.3778-0.92371-0.69787-1.6676-0.71126-1.6531-0.01338 0.01447-0.33077 0.76999-0.70526 1.6789-0.71202 1.7281-0.71142 1.7261-0.52694 1.7647 0.04149 0.00868 0.62445 0.013602 1.2955 0.010918 1.0861-0.00434 1.2264-0.011282 1.2775-0.06338zm4.0875 2.9147c-0.02995-0.03049-0.05445-0.10792-0.05445-0.17205 0-0.10336 0.01275-0.11915 0.11259-0.1392 0.20745-0.041671 0.46437-0.19416 0.55712-0.33068 0.15448-0.22739 0.16589-0.37908 0.1548-2.0586-0.0096-1.4486-0.01523-1.5774-0.07525-1.7003-0.08786-0.18013-0.2183-0.26649-0.50657-0.3354-0.23502-0.05619-0.24266-0.061407-0.24215-0.16536 3.76e-4 -0.059039 0.01315-0.12763 0.02862-0.15243 0.03441-0.055242 1.8512-0.58122 1.9546-0.56587 0.06224 0.00926 0.07996 0.047569 0.11116 0.24039 0.02042 0.12617 0.04943 0.24925 0.06447 0.27352 0.04985 0.08047 0.18679 0.046079 0.5954-0.1495 0.59903-0.28673 0.82865-0.3506 1.264-0.35157 0.26355-5.444e-4 0.41399 0.016875 0.54606 0.063409 0.22353 0.078744 0.49628 0.28287 0.63533 0.47549l0.10407 0.14415 0.31326-0.16c0.86248-0.44052 1.7462-0.63295 2.2728-0.49491 0.52185 0.1368 0.80424 0.39838 1.0251 0.94955 0.07143 0.17823 0.07482 0.24996 0.09188 1.9321 0.01709 1.6868 0.02023 1.7525 0.09132 1.9091 0.1136 0.2502 0.31896 0.41165 0.60195 0.47323 0.06668 0.014509 0.13126 0.0424 0.14349 0.061969 0.03004 0.04808-0.02759 0.24364-0.08223 0.27897-0.02416 0.01564-0.60853 0.02865-1.2986 0.02895-1.2053 5.25e-4 -1.2561-0.0021-1.2905-0.06773-0.01972-0.03754-0.03586-0.11665-0.03586-0.17579 0-0.088313 0.01701-0.11154 0.09527-0.13001 0.1831-0.04323 0.37224-0.18203 0.45942-0.33714l0.08624-0.15345 0.01082-1.4117c0.011221-1.4659-0.004935-1.7049-0.13284-1.9603-0.086053-0.17183-0.312-0.3733-0.47314-0.42189-0.46721-0.14086-1.3062-0.024342-1.5576 0.21631l-0.08177 0.078252v1.6816c0 1.8944 0.0015 1.9095 0.24278 2.1314 0.11978 0.11024 0.31607 0.19733 0.44599 0.19786 0.03553 1.409e-4 0.04265 0.032776 0.02765 0.12686-0.03767 0.23651 0.0211 0.22631-1.301 0.22571-0.65981-3.56e-4 -1.2203-0.01388-1.2456-0.03021-0.02528-0.01631-0.05416-0.09206-0.0642-0.16833l-0.01823-0.13866 0.19129-0.061426c0.22421-0.072 0.3828-0.23356 0.43938-0.44763 0.02493-0.094358 0.03414-0.6472 0.02744-1.6504l-0.010058-1.5085-0.10394-0.21022c-0.12526-0.2534-0.2894-0.39365-0.54027-0.46167-0.4901-0.13288-1.3789 0.030821-1.5418 0.28395-0.04445 0.069108-0.0503 0.3207-0.04152 1.7871l0.01021 1.7066 0.098 0.16985c0.10848 0.18801 0.24136 0.28769 0.46845 0.35142 0.15005 0.042105 0.15063 0.042893 0.13255 0.18028-0.01007 0.0759-0.03884 0.15134-0.06411 0.16766-0.02528 0.01631-0.61776 0.02992-1.3167 0.03021-1.1095 5.26e-4 -1.2776-0.0064-1.3252-0.05491zm17.566 9.87e-4c-0.03047-0.03107-0.05542-0.10792-0.05542-0.1708 0-0.10753 0.01026-0.117 0.17202-0.15924 0.25288-0.066022 0.42728-0.21089 0.54308-0.45113l0.09906-0.2055v-1.6411c0-1.5332-0.0039-1.6498-0.06489-1.7741-0.08759-0.1795-0.21726-0.26578-0.50618-0.33675-0.23357-0.057373-0.24258-0.063528-0.2423-0.16547 1.48e-4 -0.058231 0.01312-0.1265 0.0288-0.15171 0.0358-0.057451 1.8273-0.57659 1.9451-0.56364 0.08245 0.00907 0.08827 0.02516 0.12169 0.33106 0.0352 0.32251 0.08315 0.43723 0.18282 0.43723 0.02939 0 0.21849-0.10925 0.42015-0.24277 0.60153-0.39828 0.95779-0.55765 1.1601-0.51899 0.13327 0.025456 0.38144 0.23106 0.45584 0.37764 0.04744 0.09351 0.04577 0.13062-0.01874 0.40715-0.08077 0.34662-0.1705 0.57205-0.25633 0.64423-0.05188 0.043664-0.09122 0.033032-0.32609-0.088233l-0.26708-0.13788h-0.43307c-0.35242 0-0.45716 0.012191-0.5625 0.065559-0.18247 0.092415-0.33335 0.26124-0.37531 0.42-0.02279 0.086153-0.03205 0.65315-0.02536 1.5544 0.01025 1.3932 0.01183 1.4214 0.08837 1.5672 0.12719 0.24245 0.39536 0.36058 1.074 0.47313 0.22498 0.037311 0.25118 0.049906 0.25118 0.1208 0 0.04353-0.02979 0.11664-0.06618 0.16247l-0.06618 0.08331-1.6106 0.0099c-1.4385 0.0089-1.6165 0.0037-1.666-0.04663z" fill="#3f3f46" stroke-width=".034967"/><g transform="scale(.375)" fill="#84cc16"><path d="m4.9389 33.867s-3.0868 3e-6 -4.1451-1.0583c-1.0583-1.0583-1.0583-9.525 0-10.583 1.0583-1.0583 4.1451-1.0583 4.1451-1.0583z"/><path d="m5.6444 21.167s0.17639-1e-6 0.44097 0.26458 0.26458 0.52917 0.26458 0.52917v11.113s0 0.26458-0.26458 0.52917c-0.26458 0.26458-0.44097 0.26458-0.44097 0.26458z"/></g><g transform="matrix(-.375 0 0 -.375 12.7 20.638)" fill="#84cc16"><path d="m4.9389 33.867s-3.0868 3e-6 -4.1451-1.0583c-1.0583-1.0583-1.0583-9.525 0-10.583 1.0583-1.0583 4.1451-1.0583 4.1451-1.0583z"/><path d="m5.6444 21.167s0.17639-1e-6 0.44097 0.26458 0.26458 0.52917 0.26458 0.52917v11.113s0 0.26458-0.26458 0.52917c-0.26458 0.26458-0.44097 0.26458-0.44097 0.26458z"/></g><path d="m0.52917 8.4667s-0.12049-4.7655 1.2568-6.4823c1.0381-1.294 2.0821-1.9844 4.5641-1.9844 2.4819 0 3.526 0.69036 4.5641 1.9844 1.3773 1.7168 1.2568 6.4823 1.2568 6.4823l-0.79375-0.26458s0.01051-4.293-1.2568-5.8208c-0.87059-1.0496-1.7859-1.5875-3.7703-1.5875s-2.8997 0.53794-3.7703 1.5875c-1.2673 1.5278-1.2568 5.8208-1.2568 5.8208z" fill="#84cc16"/><g fill="none" stroke="#84cc16" stroke-dashoffset="2" stroke-linecap="square" stroke-width=".26458"><g><rect x="3.0427" y="9.9219" width="6.6146" height=".79375" rx=".13229" style="paint-order:normal"/><rect x="3.5719" y="10.716" width=".79375" height=".79375" rx=".099219" style="paint-order:normal"/><rect x="8.3344" y="10.716" width=".79375" height=".79375" rx=".099219" style="paint-order:normal"/><rect x="3.3073" y="4.8948" width="1.5875" height="5.0271" rx=".099219" style="paint-order:normal"/><rect x="4.8948" y="4.101" width="1.3229" height="5.8208" rx=".099219" style="paint-order:normal"/><rect x="6.2177" y="5.6885" width="1.0583" height="4.2333" rx=".099219" style="paint-order:normal"/><rect x="4.8948" y="8.3344" width="1.3229" height=".79375" rx="0" style="paint-order:normal"/><rect x="3.8365" y="5.6885" width=".52917" height="3.4396" rx=".26458" style="paint-order:normal"/></g><rect x="6.7469" y="6.35" width="8.2939e-8" height="2.9104" ry="1.504e-14"/><ellipse cx="5.5501" cy="5.4216" rx=".13229" ry=".52917"/><rect transform="rotate(-7.4285)" x="6.6967" y="5.9393" width="1.3229" height="5.0271" rx=".099219"/><rect transform="rotate(-7.4285)" x="6.6967" y="6.733" width="1.3229" height="3.4396" rx=".099219"/></g></svg>
