<svg width="313.59mm" height="78.354mm" version="1.1" viewBox="0 0 313.59 78.354" xmlns="http://www.w3.org/2000/svg"><g transform="translate(-17.293 -59.27)"><path d="m301.17 137.51c-1.2523-0.26341-2.4183-0.99153-3.1458-1.9644-0.71705-0.95892-1.4961-2.8855-1.5394-3.8071l-0.0286-0.6081 3.3826 0.0717c5.002 0.10594 6.7241-0.39585 8.8541-2.58 1.0598-1.0868 2.9851-4.4093 2.9851-5.1515 0-0.48584-9.6332-22.718-10.554-24.358-1.1319-2.0154-2.2516-3.2476-3.5731-3.9327-1.2406-0.64306-1.6152-1.2953-1.2337-2.1482l0.23031-0.51494h6.9287c5.1237 0 6.9909 0.06337 7.1675 0.24325 0.53059 0.54052 0.2692 1.3608-0.75614 2.3728-0.70377 0.69465-1.003 1.1525-1.0227 1.5647-0.0576 1.2079 0.0763 2.2394 0.43118 3.3191 0.415 1.2628 5.9104 14 6.1479 14.25 0.1809 0.19004 5.4176-11.818 6.1259-14.047 0.51639-1.625 0.62623-3.3501 0.25797-4.0511-0.28157-0.53595-1.3538-1.2173-1.9172-1.2183-0.23282-4.19e-4 -0.53277-0.13516-0.66658-0.29933-0.28421-0.34889-0.32594-1.6847-0.0611-1.9546 0.1044-0.10627 2.6416-0.1626 5.9395-0.13174l5.7573 0.0539v0.99368c0 0.98346-0.0108 0.99923-0.98781 1.5362-1.3526 0.74286-2.6619 2.1524-3.6755 3.957-0.46782 0.83297-3.9677 8.6323-7.7774 17.332-3.8098 8.6995-7.1549 16.214-7.4336 16.698-0.68064 1.1832-2.4739 2.8205-3.7549 3.4284-1.8067 0.85737-4.507 1.278-6.0803 0.94704zm-60.6-12.792c-1.406-0.18394-4.1446-0.82889-5.2003-1.2246-0.32832-0.12304-1.5568-0.68005-2.7299-1.2377l-2.133-1.0139 0.14323-1.2381c0.0788-0.68092 0.14324-9.4473 0.14324-19.481 0-17.132-0.0224-18.316-0.36565-19.45-0.4765-1.5732-1.4505-2.587-2.9093-3.0283-0.5914-0.17892-1.3167-0.32529-1.6117-0.32529-0.72462 0-1.0501-0.44412-0.8854-1.2081 0.0867-0.4023 0.28303-0.6527 0.56479-0.7205 3.1485-0.75751 12.922-2.6997 13.145-2.6123 0.3889 0.1521 0.47506 0.62023 0.28245 1.5347-0.74289 3.5271-1.2368 10.2-1.1245 15.193 0.0817 3.6338 0.19172 4.0292 1.1212 4.0292 0.27929 0 1.5443-0.45076 2.8111-1.0017 2.963-1.2886 5.0522-1.7238 7.5688-1.5767 3.5802 0.20927 6.6412 1.6041 8.8528 4.0342 2.2617 2.4851 3.4003 5.5017 3.6245 9.6028 0.34291 6.2725-2.2178 12.556-6.5734 16.131-3.6986 3.0353-9.0348 4.3376-14.724 3.5932zm8.4693-4.2429c2.1506-0.73802 3.3253-1.7936 4.3835-3.9391 1.9365-3.9259 1.6731-11.226-0.5686-15.761-0.94783-1.9173-2.5733-3.6305-4.2342-4.4628-1.2198-0.6112-1.4425-0.65407-3.3977-0.65407-1.9628 0-2.1754 0.04152-3.4336 0.66819-1.589 0.79167-3.1812 2.3543-3.6366 3.5692-0.28003 0.74695-0.3137 1.8326-0.25877 8.3442l0.0631 7.4855 0.56072 1.1632c0.64303 1.334 1.7274 2.3307 3.3683 3.0959 2.1414 0.9987 5.085 1.2006 7.1538 0.49068zm-136.43 3.0089c-0.32999-0.47994-0.39734-1.1235-0.15747-1.5048 0.0803-0.12786 0.54861-0.34257 1.0405-0.47724 2.1878-0.59893 3.5759-1.9256 5.0348-4.8118 0.72416-1.4327 9.4118-21.598 13.078-30.356 1.3154-3.1424 2.1884-5.9176 2.4547-7.8039l0.24326-1.7229 1.0673-0.3633c0.58703-0.19982 1.6458-0.38226 2.3529-0.40541l1.2855-0.0421 8.5828 20.381c4.7205 11.209 8.8962 20.912 9.2792 21.561 1.2721 2.1552 2.6168 3.2167 4.633 3.6571 0.75717 0.16541 1.0683 0.89323 0.70867 1.6578l-0.27302 0.58039-8.8854 0.0528c-9.9569 0.059-9.595 0.11046-9.4756-1.3448 0.0576-0.70353 0.11124-0.75221 1.2542-1.1403 1.7371-0.58982 2.0822-0.84422 2.5232-1.86 0.35488-0.8173 0.37289-1.0514 0.17143-2.23-0.26197-1.5324-1.5746-4.7618-2.2201-5.4616-0.24478-0.26543-0.76509-0.57316-1.1563-0.68385-0.77931-0.22053-16.128-0.28346-17.388-0.0713-1.1216 0.1888-1.7604 0.98257-2.6095 3.2424-0.95296 2.5363-1.1439 4.5011-0.53308 5.4853 0.4847 0.78095 1.6762 1.4387 2.9209 1.6125 1.08 0.15084 1.4781 0.49662 1.4781 1.2841 0 1.2293 0.0849 1.2162-7.8626 1.2162h-7.2372zm30.45-16.608c0.30704-0.31299 0.0581-1.0004-3.6153-9.9821-2.1698-5.3053-4.008-9.5779-4.085-9.4947-0.0769 0.08312-1.8997 4.4223-4.0506 9.6425-4.0894 9.9251-4.086 9.9137-3.0264 10.135 0.23828 0.0499 3.5865 0.0781 7.4404 0.0627 6.2378-0.0247 7.0434-0.0648 7.3369-0.36401zm23.476 16.74c-0.17198-0.17517-0.31269-0.61985-0.31269-0.98815 0-0.59369 0.0733-0.68434 0.64669-0.79953 1.1915-0.23933 2.667-1.1152 3.1997-1.8992 0.88726-1.306 0.95277-2.1772 0.88906-11.824-0.055-8.3201-0.0876-9.0594-0.43222-9.7657-0.50464-1.0345-1.2538-1.5305-2.9094-1.9264-1.3498-0.32271-1.3937-0.35268-1.3908-0.94972 2e-3 -0.33907 0.0757-0.73301 0.16437-0.87544 0.19766-0.31728 10.632-3.3382 11.226-3.25 0.35745 0.05313 0.45923 0.27318 0.63848 1.3807 0.11729 0.72465 0.28387 1.4315 0.37019 1.5709 0.28631 0.46216 1.0728 0.26468 3.4196-0.85863 3.4405-1.6468 4.7593-2.0136 7.2598-2.0192 1.5137-0.0031 2.3777 0.09694 3.1363 0.36416 1.2838 0.45228 2.8504 1.6246 3.649 2.731l0.59772 0.82794 1.7991-0.91893c4.9536-2.5301 10.029-3.6353 13.053-2.8425 2.9972 0.78571 4.619 2.2881 5.8874 5.4536 0.41016 1.0237 0.42975 1.4356 0.52769 11.097 0.0982 9.6881 0.11621 10.066 0.52453 10.965 0.65245 1.437 1.8319 2.3643 3.4572 2.718 0.38303 0.0833 0.75389 0.24353 0.82415 0.35593 0.17256 0.2762-0.15849 1.3994-0.47229 1.6023-0.13874 0.0898-3.4951 0.16457-7.4583 0.16628-6.9224 3e-3 -7.2141-0.0125-7.412-0.38897-0.11326-0.21564-0.20598-0.66996-0.20598-1.0096 0-0.50725 0.0977-0.64064 0.54718-0.74675 1.0516-0.24828 2.138-1.0455 2.6386-1.9363l0.49532-0.88133 0.0622-8.1079c0.0645-8.4195-0.0286-9.7921-0.76295-11.259-0.49423-0.98688-1.792-2.144-2.7174-2.4231-2.6834-0.80902-7.5018-0.13983-8.9462 1.2424l-0.46961 0.44944v9.6581c0 10.88 9e-3 10.967 1.3944 12.241 0.68799 0.63317 1.8153 1.1333 2.5615 1.1364 0.20408 8.1e-4 0.24493 0.18826 0.15885 0.72865-0.21638 1.3584 0.12118 1.2998-7.472 1.2964-3.7896-2e-3 -7.0088-0.0797-7.1539-0.17349-0.1451-0.0937-0.311-0.52876-0.36868-0.9668l-0.10487-0.79642 1.0987-0.35279c1.2877-0.41352 2.1985-1.3414 2.5235-2.5709 0.14323-0.54192 0.19602-3.7171 0.15759-9.4788l-0.0578-8.6639-0.59693-1.2074c-0.71956-1.4554-1.6623-2.2609-3.1032-2.6515-2.8148-0.76317-7.9198 0.17704-8.8549 1.6308-0.2553 0.39693-0.28887 1.8419-0.2384 10.264l0.0587 9.8018 0.56287 0.97552c0.62307 1.0798 1.3862 1.6523 2.6905 2.0183 0.86183 0.24185 0.86515 0.24638 0.76126 1.0354-0.0575 0.43589-0.22307 0.8692-0.36816 0.96291-0.1451 0.0937-3.548 0.17178-7.5621 0.17349-6.3722 3e-3 -7.3379-0.0373-7.6109-0.31543zm100.89 6e-3c-0.1751-0.17838-0.31837-0.61982-0.31837-0.98096 0-0.61762 0.0587-0.672 0.98797-0.9146 1.4524-0.3792 2.454-1.2112 3.1191-2.591l0.56892-1.1803v-9.4256c0-8.8059-0.0246-9.4757-0.37275-10.19-0.5029-1.0309-1.2478-1.5265-2.9072-1.9341-1.3415-0.32953-1.3932-0.36488-1.3917-0.95035 8.6e-4 -0.33444 0.0753-0.72656 0.16558-0.87136 0.20547-0.32998 10.495-3.3116 11.172-3.2372 0.47322 0.05205 0.5072 0.14448 0.69884 1.9014 0.20206 1.8523 0.47755 2.5112 1.05 2.5112 0.16898 0 1.2549-0.62744 2.4131-1.3943 3.4548-2.2875 5.501-3.2028 6.663-2.9807 0.7654 0.14619 2.1907 1.3271 2.6181 2.1689 0.27262 0.53705 0.26284 0.75022-0.1075 2.3384-0.46414 1.9908-0.97928 3.2855-1.4722 3.7001-0.29817 0.25077-0.52381 0.18973-1.8729-0.50674l-1.5339-0.79188h-2.4872c-2.0242 0-2.6256 0.07002-3.2307 0.37651-1.048 0.53076-1.9145 1.5004-2.1555 2.4122-0.13081 0.49478-0.18396 3.7513-0.14573 8.9273 0.059 8.002 0.0682 8.1637 0.50749 9.0011 0.73054 1.3925 2.2707 2.0709 6.1687 2.7174 1.2922 0.21429 1.4426 0.28663 1.4426 0.69382 0 0.25002-0.17112 0.66992-0.38026 0.93311l-0.38026 0.47852-9.2503 0.0564c-8.2617 0.0505-9.2843 0.0218-9.5687-0.26786z" fill="#3f3f46" stroke-width=".20083"/><g fill="none" stroke="#84cc16" stroke-miterlimit="10"><rect x="35.869" y="115.75" width="46.616" height="4.7057" rx=".16125" stroke-width="2.065" style="paint-order:normal"/><rect x="41.419" y="120.38" width="4.8103" height="5.8544" rx=".16125" stroke-width="1.8605" style="paint-order:normal"/><rect x="72.168" y="120.38" width="4.8103" height="5.8544" rx=".16125" stroke-width="1.8605" style="paint-order:normal"/><g stroke-width="1.812"><rect x="38.695" y="81.547" width="11.119" height="34.2" rx=".16125" style="paint-order:normal"/><rect x="49.941" y="78.578" width="9.3782" height="37.253" rx=".16125" style="paint-order:normal"/><rect x="49.916" y="106.23" width="9.225" height="5.654" rx=".16125" style="paint-order:normal"/><rect x="59.319" y="87.209" width="7.41" height="28.649" rx=".16125" style="paint-order:normal"/><rect transform="rotate(-9.341)" x="51.968" y="91.835" width="8.3702" height="33.53" rx=".16125" style="paint-order:normal"/><rect transform="rotate(-9.341)" x="51.984" y="97.655" width="8.367" height="22.044" rx=".16125" style="paint-order:normal"/><rect x="62.953" y="91.836" width=".044172" height="18.196" rx=".16125" style="paint-order:normal"/><rect x="42.417" y="86.379" width="3.6761" height="23.489" rx="1.8245" style="paint-order:normal"/></g></g><path d="m24.152 132.77c-3.8311-1.669-5.0209-2.5579-6.226-4.6516l-0.63233-1.0986v-19.918l0.73259-1.169c0.40292-0.64295 1.1113-1.5431 1.5742-2.0002l0.84166-0.83123 0.07842-4.9536c0.11185-7.0622 1.1681-11.639 3.9997-17.33 5.3975-10.849 14.789-18.234 26.617-20.932 2.3276-0.5309 3.374-0.61112 7.9708-0.61112 5.8866 0 7.642 0.2627 12.298 1.8404 9.6034 3.2543 17.806 10.513 22.281 19.719 2.9445 6.0566 3.9454 10.394 4.0243 17.44l0.0539 4.8175 0.84623 0.83579c0.46543 0.45969 1.1759 1.3618 1.5788 2.0048l0.73257 1.169v19.918l-0.63232 1.0986c-1.1903 2.0679-2.3744 2.9555-6.1905 4.6407-1.9745 0.87188-3.6863 1.5852-3.804 1.5852-0.11772 0-0.21404-7.7502-0.21404-17.223s0.06037-17.223 0.13419-17.223c0.07377 0 0.82324 0.28523 1.6654 0.63384l1.5312 0.63383 0.17151-1.1651c0.39631-2.6919-0.56462-9.0666-1.9849-13.168-2.2756-6.571-6.5507-12.45-12.09-16.627-2.6697-2.0128-7.5965-4.5013-10.722-5.4157-8.4824-2.4814-16.83-1.7324-24.79 2.2245-9.2879 4.6171-15.765 12.783-18.348 23.133-0.73746 2.9542-1.2758 8.0985-1.0254 9.7991l0.17929 1.218 1.5312-0.63383c0.84217-0.34861 1.5916-0.63384 1.6654-0.63384 0.07377 0 0.13418 7.7504 0.13418 17.223s-0.08717 17.221-0.19359 17.219c-0.10645-2e-3 -1.8115-0.70885-3.7889-1.5703zm5.0241 1.0657c-0.36902-0.7024-0.36902-32.726 0-33.428 0.39178-0.74573 3.2037-0.74573 3.5955 0 0.36902 0.70242 0.36902 32.726 0 33.428-0.21806 0.41504-0.5487 0.5086-1.7977 0.5086s-1.5797-0.0936-1.7977-0.5086zm56.269 0c-0.1759-0.33481-0.2672-6.046-0.2672-16.714 0-10.668 0.09127-16.379 0.2672-16.714 0.39178-0.74573 3.2037-0.74573 3.5955 0 0.36901 0.70242 0.36901 32.726 0 33.428-0.21805 0.41504-0.54871 0.5086-1.7977 0.5086-1.249 0-1.5797-0.0936-1.7977-0.5086z" fill="#84cc16" stroke-width=".26052"/></g></svg>
