<svg width="1056" height="256" version="1.1" viewBox="0 0 279.4 67.733"
  xmlns="http://www.w3.org/2000/svg">
  <g transform="scale(2)" fill="#A3E635">
    <path d="m4.7625 33.867s-2.9104 4e-6 -3.9688-1.0583c-1.0583-1.0583-1.0583-9.525 0-10.583 1.0583-1.0583 3.9688-1.0583 3.9688-1.0583z"/>
    <path d="m5.2917 21.167h0.26458s0.26458-1e-6 0.52917 0.26458 0.26458 0.52917 0.26458 0.52917v11.113s0 0.26458-0.26458 0.52917c-0.26458 0.26458-0.52917 0.26458-0.52917 0.26458h-0.26458z"/>
  </g>
  <g transform="matrix(-2 0 0 -2 67.733 110.07)" fill="#A3E635">
    <path d="m4.7625 33.867s-2.9104 4e-6 -3.9688-1.0583c-1.0583-1.0583-1.0583-9.525 0-10.583 1.0583-1.0583 3.9688-1.0583 3.9688-1.0583z"/>
    <path d="m5.2917 21.167h0.26458s0.26458-1e-6 0.52917 0.26458 0.26458 0.52917 0.26458 0.52917v11.113s0 0.26458-0.26458 0.52917c-0.26458 0.26458-0.52917 0.26458-0.52917 0.26458h-0.26458z"/>
  </g>
  <path d="m3.175 44.45s-0.80946-24.885 6.35-33.867c5.5151-6.9184 11.105-10.583 24.342-10.583 13.237 0 18.827 3.6649 24.342 10.583 7.1595 8.9812 6.35 33.867 6.35 33.867l-4.2333-1.0583s0.2851-22.622-6.35-30.692c-4.6189-5.6176-9.525-8.4667-20.108-8.4667s-15.489 2.8491-20.108 8.4667c-6.6351 8.0697-6.35 30.692-6.35 30.692z" fill="#A3E635"/>
  <g fill="none" stroke="#A3E635" stroke-dashoffset="2" stroke-linecap="square">
    <rect x="15.61" y="53.181" width="36.513" height="3.7042" rx=".52917" stroke-width="1.5875" style="paint-order:normal"/>
    <g stroke-width="1.0583">
      <rect x="19.579" y="56.621" width="3.175" height="4.2333" rx=".52917" style="paint-order:normal"/>
      <rect x="44.979" y="56.621" width="3.175" height="4.2333" rx=".52917" style="paint-order:normal"/>
      <rect x="17.992" y="26.458" width="8.4667" height="26.458" rx=".52917" style="paint-order:normal"/>
      <rect x="26.458" y="21.696" width="7.4083" height="31.221" rx=".52917" style="paint-order:normal"/>
      <rect x="33.867" y="30.692" width="5.8208" height="22.225" rx=".52917" style="paint-order:normal"/>
      <rect x="26.458" y="44.45" width="7.4083" height="4.2333" rx="0" style="paint-order:normal"/>
      <rect x="20.638" y="30.692" width="3.175" height="17.992" rx="1.5875" style="paint-order:normal"/>
      <rect x="36.513" y="34.925" width=".52917" height="13.758" rx=".26458" style="paint-order:normal"/>
    </g>
  </g>
  <g transform="matrix(1.9815 -.27136 .27136 1.9815 -6.8705 6.9281)" fill="none" stroke="#A3E635" stroke-dashoffset="2" stroke-linecap="square" stroke-width=".52917">
    <rect x="21.696" y="12.965" width="3.175" height="13.494" rx=".26458" style="paint-order:normal"/>
    <rect x="21.696" y="15.081" width="3.175" height="9.2604" rx="0" style="paint-order:normal"/>
  </g>
  <ellipse cx="30.162" cy="28.84" rx="1.5875" ry="3.4396" fill="none" stroke="#A3E635" stroke-dashoffset="2" stroke-linecap="square" stroke-width="1.0583" style="paint-order:normal"/>
  <path d="m251.86 67.627c-1.1616-0.24433-2.2432-0.91973-2.918-1.8222-0.66513-0.88948-1.3877-2.6765-1.4279-3.5314l-0.0265-0.56406 3.1377 0.06651c4.6398 0.09826 6.2372-0.36718 8.213-2.3932 0.98307-1.0081 2.769-4.09 2.769-4.7784 0-0.45066-8.9356-21.073-9.7901-22.595-1.05-1.8694-2.0885-3.0125-3.3144-3.6479-1.1508-0.59649-1.4982-1.2015-1.1444-1.9926l0.21362-0.47764h6.427c4.7527 0 6.4847 0.05877 6.6485 0.22564 0.49218 0.50138 0.24971 1.2623-0.70139 2.201-0.65282 0.64435-0.93036 1.069-0.94864 1.4514-0.0534 1.1204 0.0707 2.0772 0.39996 3.0787 0.38494 1.1713 5.4824 12.986 5.7027 13.218 0.16782 0.17628 5.0253-10.962 5.6823-13.03 0.479-1.5074 0.58087-3.1075 0.23929-3.7577-0.26117-0.49714-1.2557-1.1291-1.7784-1.1301-0.21597-3.88e-4 -0.4942-0.12538-0.61832-0.27765-0.26363-0.32362-0.30234-1.5627-0.0566-1.813 0.0968-0.09856 2.4503-0.15082 5.5094-0.1222l5.3404 0.04999v0.92173c0 0.91224-0.01 0.92687-0.91628 1.4249-1.2547 0.68907-2.4691 1.9965-3.4093 3.6705-0.43394 0.77265-3.6803 8.0072-7.2142 16.077-3.5339 8.0696-6.6368 15.04-6.8953 15.489-0.63136 1.0975-2.2948 2.6162-3.483 3.1801-1.6759 0.79529-4.1807 1.1854-5.64 0.87846zm-56.212-11.866c-1.3042-0.17062-3.8445-0.76887-4.8237-1.136-0.30456-0.11413-1.4441-0.63081-2.5323-1.148l-1.9785-0.94045 0.13285-1.1484c0.073-0.63161 0.13289-8.7632 0.13289-18.07 0-15.892-0.0207-16.99-0.33919-18.041-0.44201-1.4592-1.3455-2.3997-2.6987-2.809-0.54859-0.16597-1.2213-0.30173-1.495-0.30173-0.67215 0-0.97407-0.41196-0.82129-1.1206 0.0803-0.37317 0.26253-0.60544 0.52389-0.66833 2.9205-0.70265 11.986-2.5042 12.193-2.4232 0.36074 0.14108 0.44067 0.57532 0.26201 1.4236-0.6891 3.2717-1.1472 9.4613-1.0431 14.093 0.0757 3.3707 0.17786 3.7374 1.04 3.7374 0.25905 0 1.4324-0.41812 2.6075-0.92914 2.7485-1.1953 4.6864-1.5989 7.0208-1.4625 3.321 0.19411 6.1603 1.488 8.2117 3.742 2.098 2.3052 3.1541 5.1033 3.3621 8.9074 0.31807 5.8183-2.0572 11.647-6.0974 14.963-3.4307 2.8155-8.3806 4.0235-13.658 3.333zm7.856-3.9357c1.9948-0.68458 3.0845-1.6637 4.066-3.6538 1.7963-3.6416 1.5519-10.413-0.52744-14.62-0.87918-1.7785-2.3869-3.3676-3.9276-4.1396-1.1314-0.56694-1.338-0.60671-3.1517-0.60671-1.8206 0-2.0179 0.03851-3.1849 0.61981-1.474 0.73434-2.9508 2.1838-3.3733 3.3108-0.25977 0.69286-0.291 1.6999-0.24005 7.74l0.0584 6.9435 0.52012 1.079c0.59646 1.2374 1.6024 2.1619 3.1244 2.8717 1.9863 0.92638 4.7168 1.1137 6.6358 0.45515zm-126.55 2.791c-0.3061-0.44518-0.36857-1.0421-0.14607-1.3958 0.07449-0.1186 0.50888-0.31776 0.96512-0.44268 2.0294-0.55556 3.317-1.7861 4.6702-4.4633 0.67172-1.3289 8.7303-20.034 12.131-28.158 1.2202-2.9149 2.0299-5.4891 2.2769-7.2388l0.22565-1.5982 0.99002-0.337c0.54452-0.18535 1.5267-0.35458 2.1826-0.37605l1.1924-0.03905 7.9613 18.905c4.3787 10.398 8.252 19.397 8.6072 19.999 1.18 1.9992 2.4273 2.9838 4.2976 3.3923 0.70233 0.15343 0.99096 0.82855 0.65735 1.5377l-0.25326 0.53836-8.242 0.04897c-9.2359 0.05473-8.9002 0.10246-8.7895-1.2474 0.0534-0.65258 0.10319-0.69774 1.1634-1.0577 1.6113-0.54711 1.9314-0.78309 2.3405-1.7253 0.32917-0.75812 0.34589-0.97531 0.15901-2.0685-0.24301-1.4214-1.4606-4.4169-2.0593-5.0661-0.22706-0.24621-0.70968-0.53166-1.0725-0.63433-0.72288-0.20456-14.96-0.26293-16.129-0.06613-1.0403 0.17513-1.6329 0.91142-2.4205 3.0076-0.88395 2.3526-1.0611 4.1752-0.49448 5.0881 0.4496 0.7244 1.5548 1.3345 2.7094 1.4957 1.0018 0.13992 1.3711 0.46066 1.3711 1.1911 0 1.1403 0.07875 1.1281-7.2932 1.1281h-6.7132zm28.245-15.406c0.28481-0.29032 0.0538-0.928-3.3535-9.2593-2.0128-4.9211-3.7179-8.8843-3.7893-8.8071-0.0713 0.0771-1.7622 4.1021-3.7573 8.9443-3.7933 9.2064-3.7901 9.1958-2.8073 9.4015 0.22102 0.04629 3.3268 0.07244 6.9016 0.05816 5.7862-0.0229 6.5334-0.06011 6.8057-0.33765zm21.776 15.528c-0.15954-0.16248-0.29005-0.57496-0.29005-0.91659 0-0.5507 0.0679-0.63478 0.59985-0.74163 1.1052-0.222 2.4739-1.0344 2.968-1.7617 0.823-1.2114 0.88378-2.0196 0.82468-10.967-0.0509-7.7176-0.0811-8.4034-0.40094-9.0585-0.46808-0.95962-1.163-1.4197-2.6987-1.7869-1.2521-0.29934-1.2928-0.32714-1.2901-0.88094 2e-3 -0.31452 0.0701-0.67994 0.15249-0.81205 0.18333-0.29431 9.8624-3.0965 10.413-3.0147 0.33159 0.04927 0.42598 0.2534 0.59223 1.2807 0.10882 0.67217 0.26334 1.3279 0.34341 1.4572 0.26557 0.42869 0.99511 0.24552 3.172-0.79645 3.1913-1.5276 4.4147-1.8678 6.734-1.873 1.4041-0.0029 2.2055 0.08992 2.9092 0.33779 1.1909 0.41953 2.6439 1.507 3.3847 2.5332l0.55444 0.76798 1.6689-0.85239c4.5949-2.3469 9.3028-3.3721 12.108-2.6366 2.7801 0.72881 4.2846 2.1224 5.4611 5.0587 0.38046 0.94954 0.39863 1.3317 0.48948 10.293 0.091 8.9866 0.10779 9.3367 0.48654 10.171 0.60519 1.3329 1.6993 2.1931 3.2069 2.5212 0.35529 0.07727 0.69929 0.2259 0.76447 0.33016 0.16006 0.2562-0.14702 1.2981-0.43811 1.4863-0.12869 0.08331-3.242 0.15265-6.9182 0.15424-6.4211 0.0028-6.6917-0.01159-6.8752-0.3608-0.10505-0.20002-0.19106-0.62145-0.19106-0.93652 0-0.47052 0.0906-0.59425 0.50756-0.69268 0.97547-0.2303 1.9831-0.96978 2.4475-1.7961l0.45944-0.81751 0.0576-7.5208c0.0598-7.8098-0.0265-9.083-0.7077-10.443-0.45846-0.91542-1.6622-1.9888-2.5207-2.2476-2.489-0.75044-6.9586-0.1297-8.2984 1.1524l-0.43561 0.41689v8.9587c0 10.092 8e-3 10.173 1.2934 11.355 0.63816 0.58732 1.6839 1.0512 2.376 1.0541 0.18928 7.53e-4 0.22718 0.17463 0.14731 0.67589-0.2007 1.26 0.11241 1.2056-6.9309 1.2025-3.5152-0.0019-6.5013-0.07393-6.6359-0.16093-0.1346-0.08692-0.28849-0.49047-0.34199-0.89679l-0.0971-0.73875 1.0191-0.32724c1.1945-0.38358 2.0393-1.2443 2.3408-2.3848 0.13285-0.50268 0.18184-3.448 0.14618-8.7924l-0.0536-8.0365-0.55371-1.1199c-0.66745-1.35-1.5419-2.0972-2.8784-2.4595-2.611-0.7079-7.3463 0.16422-8.2137 1.5127-0.23682 0.36818-0.26796 1.7085-0.22114 9.5205l0.0544 9.092 0.52211 0.90488c0.57794 1.0016 1.2859 1.5327 2.4956 1.8722 0.79941 0.22434 0.8025 0.22854 0.70614 0.96047-0.0533 0.40433-0.20692 0.80626-0.34151 0.89318-0.1346 0.08692-3.2911 0.15934-7.0145 0.16093-5.9107 0.0028-6.8066-0.0346-7.0598-0.29259zm93.582 0.0055c-0.16242-0.16546-0.29531-0.57494-0.29531-0.90992 0-0.5729 0.0544-0.62334 0.91642-0.84837 1.3472-0.35174 2.2763-1.1235 2.8932-2.4034l0.52773-1.0948v-8.7431c0-8.1682-0.0227-8.7895-0.34574-9.4517-0.46649-0.95626-1.1574-1.4159-2.6966-1.794-1.2444-0.30567-1.2924-0.33845-1.2909-0.88153 8e-4 -0.31022 0.0697-0.67395 0.1536-0.80826 0.19059-0.30608 9.735-3.0718 10.363-3.0028 0.43897 0.04829 0.47048 0.13402 0.64825 1.7637 0.18742 1.7182 0.44295 2.3294 0.97398 2.3294 0.15673 0 1.164-0.58201 2.2384-1.2934 3.2046-2.1218 5.1026-2.9709 6.1805-2.7649 0.70998 0.1356 2.0321 1.231 2.4285 2.0119 0.25288 0.49816 0.24383 0.6959-0.0996 2.1691-0.43053 1.8466-0.90836 3.0476-1.3656 3.4321-0.27658 0.23261-0.48588 0.17599-1.7372-0.47005l-1.4228-0.73453h-2.3072c-1.8776 0-2.4355 0.06495-2.9968 0.34925-0.97214 0.49233-1.7759 1.3918-1.9994 2.2375-0.12134 0.45895-0.17063 3.4797-0.13517 8.2809 0.0547 7.4225 0.0631 7.5725 0.47075 8.3493 0.67762 1.2917 2.1063 1.921 5.7219 2.5206 1.1986 0.19877 1.3382 0.26588 1.3382 0.64358 0 0.23192-0.15873 0.62141-0.35273 0.86554l-0.35273 0.44387-8.5804 0.05232c-7.6635 0.04684-8.612 0.02022-8.8758-0.24846z" fill="#D4D4D8" stroke-width=".18629"/>
</svg>
